<?xml version="1.0" encoding="utf-8"?>
<!-- Generator: Adobe Illustrator 26.0.1, SVG Export Plug-In . SVG Version: 6.00 Build 0)  -->
<svg version="1.1" id="Layer_1" xmlns="http://www.w3.org/2000/svg" xmlns:xlink="http://www.w3.org/1999/xlink" x="0px" y="0px"
	 viewBox="0 0 1000 1000" style="enable-background:new 0 0 1000 1000;" xml:space="preserve">
<style type="text/css">
	.st0{fill:url(#SVGID_1_);}
	.st1{fill:url(#SVGID_00000014612877701637658090000011198701961223672987_);}
	.st2{fill:url(#SVGID_00000003825482267657235990000017842677381269588389_);}
	.st3{fill:url(#SVGID_00000032613741837288650300000011544640245537849740_);}
	.st4{fill:url(#SVGID_00000082363797880684675820000015314155050187459971_);}
	.st5{fill:url(#SVGID_00000085217026634051065450000004449694774031143312_);}
	.st6{fill:none;}
	.st7{fill:url(#SVGID_00000031909406460472115100000007508753328665763744_);}
	.st8{fill:url(#SVGID_00000047767272036275815600000007244278885572840891_);}
	.st9{fill:url(#SVGID_00000116943678425959921420000012014703290190295978_);}
	.st10{fill:url(#SVGID_00000152235858263609787080000011096961531796293794_);}
	.st11{fill:url(#SVGID_00000036238482598126107250000014991553690972197537_);}
	.st12{fill:url(#SVGID_00000119119252779078141730000009067776458204691374_);}
	.st13{fill:url(#SVGID_00000133511617071521687700000003523311715049409718_);}
	.st14{fill:url(#SVGID_00000017474729390846836840000011009636990311541683_);}
	.st15{fill:url(#SVGID_00000060000658693789676950000011129719507768014979_);}
</style>
<linearGradient id="SVGID_1_" gradientUnits="userSpaceOnUse" x1="425.3356" y1="311.8508" x2="425.3356" y2="533.3566">
	<stop  offset="0" style="stop-color:#29ABE2"/>
	<stop  offset="1" style="stop-color:#2E3192"/>
</linearGradient>
<polygon class="st0" points="465.86,438.27 453.02,533.36 384.81,533.36 388.89,512.79 428.74,311.85 460.14,311.85 463.44,318.31 
	429.16,512.79 436.99,512.79 452.07,426.88 464.67,436.22 "/>
<linearGradient id="SVGID_00000065756487101181354730000001127235440028786588_" gradientUnits="userSpaceOnUse" x1="513.3745" y1="277.7351" x2="513.3745" y2="568.2963">
	<stop  offset="0" style="stop-color:#29ABE2"/>
	<stop  offset="1" style="stop-color:#2E3192"/>
</linearGradient>
<polygon style="fill:url(#SVGID_00000065756487101181354730000001127235440028786588_);" points="513.28,489.45 513.38,489.41 
	513.47,489.45 "/>
<linearGradient id="SVGID_00000071519486436981625360000004005212138565833904_" gradientUnits="userSpaceOnUse" x1="513.3745" y1="277.7351" x2="513.3745" y2="568.2963">
	<stop  offset="0" style="stop-color:#29ABE2"/>
	<stop  offset="1" style="stop-color:#2E3192"/>
</linearGradient>
<polygon style="fill:url(#SVGID_00000071519486436981625360000004005212138565833904_);" points="513.28,489.36 513.38,489.17 
	513.47,489.36 513.38,489.41 "/>
<linearGradient id="SVGID_00000114066912803792077180000001900779295215664036_" gradientUnits="userSpaceOnUse" x1="514.1404" y1="277.7351" x2="514.1404" y2="568.2963">
	<stop  offset="0" style="stop-color:#29ABE2"/>
	<stop  offset="1" style="stop-color:#2E3192"/>
</linearGradient>
<polygon style="fill:url(#SVGID_00000114066912803792077180000001900779295215664036_);" points="560.29,324.62 570.71,382.17 
	570.71,382.18 513.38,489.17 513.28,488.99 457.58,384.68 467.77,326.81 513.47,416.47 "/>
<linearGradient id="SVGID_00000102526930854854407230000018194208659702911873_" gradientUnits="userSpaceOnUse" x1="601.6058" y1="311.8508" x2="601.6058" y2="533.3566">
	<stop  offset="0" style="stop-color:#29ABE2"/>
	<stop  offset="1" style="stop-color:#2E3192"/>
</linearGradient>
<polygon style="fill:url(#SVGID_00000102526930854854407230000018194208659702911873_);" points="642.13,533.36 573.92,533.36 
	561.08,438.27 562.26,436.22 574.87,426.88 589.95,512.79 600.18,512.79 564.6,316.16 566.8,311.85 598.2,311.85 638.06,512.79 "/>
<linearGradient id="SVGID_00000109020833511861835420000015207081598280740251_" gradientUnits="userSpaceOnUse" x1="386.853" y1="512.7857" x2="386.853" y2="533.3566">
	<stop  offset="0" style="stop-color:#29ABE2"/>
	<stop  offset="1" style="stop-color:#2E3192"/>
</linearGradient>
<polygon style="fill:url(#SVGID_00000109020833511861835420000015207081598280740251_);" points="388.89,512.79 384.81,533.36 
	388.88,512.79 "/>
<g>
	<line class="st6" x1="513.28" y1="489.45" x2="513.28" y2="422.23"/>
</g>
<g>
	
		<linearGradient id="SVGID_00000044889275623961841930000011677623913850842276_" gradientUnits="userSpaceOnUse" x1="280.7513" y1="531.8265" x2="280.7513" y2="622.6641">
		<stop  offset="0" style="stop-color:#29ABE2"/>
		<stop  offset="1" style="stop-color:#2E3192"/>
	</linearGradient>
	<path style="fill:url(#SVGID_00000044889275623961841930000011677623913850842276_);" d="M308.24,568.06l-26.27,35.03h-3
		l-25.7-35.15v58.66h-15.21v-80.67h17.52l25.24,34.69l25.24-34.69h17.4v80.67h-15.21V568.06z"/>
	
		<linearGradient id="SVGID_00000040576714595037116040000007869961926287254192_" gradientUnits="userSpaceOnUse" x1="365.5702" y1="531.8265" x2="365.5702" y2="622.6641">
		<stop  offset="0" style="stop-color:#29ABE2"/>
		<stop  offset="1" style="stop-color:#2E3192"/>
	</linearGradient>
	<path style="fill:url(#SVGID_00000040576714595037116040000007869961926287254192_);" d="M382.91,569.68h13.48v56.81h-13.25
		l-0.69-8.3c-3.23,6.68-12.1,9.91-18.44,10.03c-16.83,0.12-29.27-10.26-29.27-30.19c0-19.59,13.02-29.85,29.62-29.73
		c7.61,0,14.87,3.57,18.09,9.22L382.91,569.68z M348.8,598.03c0,10.83,7.49,17.29,16.83,17.29c22.13,0,22.13-34.46,0-34.46
		C356.29,580.86,348.8,587.19,348.8,598.03z"/>
	
		<linearGradient id="SVGID_00000096024146575948263330000015408701570801188281_" gradientUnits="userSpaceOnUse" x1="430.6245" y1="531.8265" x2="430.6245" y2="622.6641">
		<stop  offset="0" style="stop-color:#29ABE2"/>
		<stop  offset="1" style="stop-color:#2E3192"/>
	</linearGradient>
	<path style="fill:url(#SVGID_00000096024146575948263330000015408701570801188281_);" d="M421.29,569.68l1.04,6.57
		c4.38-7.03,10.26-8.07,16.02-8.07c5.88,0,11.52,2.31,14.64,5.42l-6.34,12.22c-2.88-2.42-5.53-3.69-10.14-3.69
		c-7.38,0-14.18,3.92-14.18,14.41v29.96h-14.06v-56.81H421.29z"/>
	
		<linearGradient id="SVGID_00000081646585903563728340000004312918726105885079_" gradientUnits="userSpaceOnUse" x1="484.5577" y1="531.8265" x2="484.5577" y2="622.6641">
		<stop  offset="0" style="stop-color:#29ABE2"/>
		<stop  offset="1" style="stop-color:#2E3192"/>
	</linearGradient>
	<path style="fill:url(#SVGID_00000081646585903563728340000004312918726105885079_);" d="M472,545.94v46.56l19.13-22.82h16.83v0.81
		l-23.16,25.93l26.39,29.04v1.04h-16.94L472,600.79v25.7h-14.06v-80.55H472z"/>
	
		<linearGradient id="SVGID_00000021077168716144315070000012997169686462992302_" gradientUnits="userSpaceOnUse" x1="544.6721" y1="531.8265" x2="544.6721" y2="622.6641">
		<stop  offset="0" style="stop-color:#29ABE2"/>
		<stop  offset="1" style="stop-color:#2E3192"/>
	</linearGradient>
	<path style="fill:url(#SVGID_00000021077168716144315070000012997169686462992302_);" d="M529.62,603.1
		c0.92,7.03,7.03,12.1,16.94,12.1c5.19,0,11.99-1.96,15.21-5.3l8.99,8.87c-5.99,6.22-15.79,9.22-24.43,9.22
		c-19.59,0-31.23-12.1-31.23-30.31c0-17.29,11.75-29.73,30.19-29.73c19.01,0,30.88,11.76,28.69,35.15H529.62z M560.5,591.46
		c-0.92-7.38-6.68-11.06-14.75-11.06c-7.61,0-13.83,3.69-15.9,11.06H560.5z"/>
	
		<linearGradient id="SVGID_00000143581565845807073060000012020664223766351029_" gradientUnits="userSpaceOnUse" x1="598.8802" y1="531.8265" x2="598.8802" y2="622.6641">
		<stop  offset="0" style="stop-color:#29ABE2"/>
		<stop  offset="1" style="stop-color:#2E3192"/>
	</linearGradient>
	<path style="fill:url(#SVGID_00000143581565845807073060000012020664223766351029_);" d="M602.22,553.66v16.13h15.67v12.1h-15.79
		v24.55c0,5.42,3,8.07,7.38,8.07c2.19,0,4.73-0.69,6.8-1.73l3.92,11.98c-4.03,1.61-7.38,2.3-11.64,2.42
		c-12.33,0.46-20.4-6.57-20.4-20.74v-24.55h-10.6v-12.1h10.6v-14.64L602.22,553.66z"/>
	
		<linearGradient id="SVGID_00000123429162014038692630000013641687252855310212_" gradientUnits="userSpaceOnUse" x1="659.3813" y1="531.8265" x2="659.3813" y2="622.6641">
		<stop  offset="0" style="stop-color:#29ABE2"/>
		<stop  offset="1" style="stop-color:#2E3192"/>
	</linearGradient>
	<path style="fill:url(#SVGID_00000123429162014038692630000013641687252855310212_);" d="M689.57,626.49h-60.39
		c0-26.85,0-53.82,0-80.67h60.39v14.75h-45.29v18.55h43.68v14.18h-43.68v18.21h45.29V626.49z"/>
	
		<linearGradient id="SVGID_00000115484864243578229470000017289133029889163154_" gradientUnits="userSpaceOnUse" x1="727.3172" y1="531.8265" x2="727.3172" y2="622.6641">
		<stop  offset="0" style="stop-color:#29ABE2"/>
		<stop  offset="1" style="stop-color:#2E3192"/>
	</linearGradient>
	<path style="fill:url(#SVGID_00000115484864243578229470000017289133029889163154_);" d="M759.18,569.56l-24.2,57.16h-15.21
		l-24.32-57.16h15.33l7.84,18.78l8.76,23.97l8.64-23.74l7.84-19.01H759.18z"/>
	
		<linearGradient id="SVGID_00000124162246123404536960000005834953822157561003_" gradientUnits="userSpaceOnUse" x1="792.8904" y1="531.8265" x2="792.8904" y2="622.6641">
		<stop  offset="0" style="stop-color:#29ABE2"/>
		<stop  offset="1" style="stop-color:#2E3192"/>
	</linearGradient>
	<path style="fill:url(#SVGID_00000124162246123404536960000005834953822157561003_);" d="M822.45,598.14
		c0,16.36-11.18,29.62-29.62,29.62s-29.5-13.25-29.5-29.62c0-16.25,11.29-29.62,29.39-29.62S822.45,581.89,822.45,598.14z
		 M777.39,598.14c0,8.64,5.19,16.71,15.44,16.71c10.26,0,15.44-8.07,15.44-16.71c0-8.53-5.99-16.83-15.44-16.83
		C782.69,581.32,777.39,589.61,777.39,598.14z"/>
</g>
</svg>
